<?xml version="1.0" encoding="UTF-8"?>
<!DOCTYPE svg PUBLIC "-//W3C//DTD SVG 1.1//EN" "http://www.w3.org/Graphics/SVG/1.1/DTD/svg11.dtd">
<!-- Creator: CorelDRAW 2021 (64-Bit) -->
<svg xmlns="http://www.w3.org/2000/svg" xml:space="preserve" width="26.105in" height="10.2884in" version="1.1" style="shape-rendering:geometricPrecision; text-rendering:geometricPrecision; image-rendering:optimizeQuality; fill-rule:evenodd; clip-rule:evenodd"
viewBox="0 0 3740.35 1474.14"
 xmlns:xlink="http://www.w3.org/1999/xlink"
 xmlns:xodm="http://www.corel.com/coreldraw/odm/2003">
 <defs>
  <style type="text/css">
   <![CDATA[
    .fil0 {fill:black;fill-rule:nonzero}
    .fil1 {fill:#DE5C6E;fill-rule:nonzero}
   ]]>
  </style>
 </defs>
 <g id="Layer_x0020_1">
  <metadata id="CorelCorpID_0Corel-Layer"/>
  <g id="_1916356347216">
   <path class="fil0" d="M385.49 0c51.97,0 101.68,10.44 147.09,29.31 47.18,19.61 89.67,48.31 125.23,83.87 35.55,35.55 64.26,78.04 83.87,125.23 18.87,45.41 29.31,95.11 29.31,147.09l0 676.11c0,10.97 -1.9,21.19 -5.76,30.66 -3.87,9.49 -9.67,18.1 -17.46,25.82 -7.73,7.66 -16.4,13.41 -25.86,17.29 -9.62,3.93 -19.85,5.88 -30.56,5.88 -10.98,0 -21.37,-1.92 -31.06,-5.83 -9.57,-3.86 -18.31,-9.62 -26.1,-17.34 -7.79,-7.72 -13.6,-16.33 -17.45,-25.83 -3.86,-9.47 -5.76,-19.69 -5.76,-30.65 0,-107.07 0.98,-222.78 1.96,-338.47 0.92,-109.48 1.85,-218.92 1.85,-337.64 0,-30.91 -6.2,-60.43 -17.41,-87.36 -11.66,-28 -28.77,-53.29 -50.01,-74.52 -21.23,-21.23 -46.52,-38.35 -74.52,-50 -26.93,-11.21 -56.45,-17.41 -87.36,-17.41 -30.92,0 -60.44,6.2 -87.36,17.41 -28,11.65 -53.3,28.78 -74.53,50 -21.23,21.23 -38.35,46.53 -50,74.52 -11.21,26.93 -17.41,56.45 -17.41,87.36 0,118.72 0.93,228.16 1.85,337.64 0.98,115.69 1.96,231.4 1.96,338.47 0,10.97 -1.9,21.19 -5.76,30.66 -3.87,9.49 -9.67,18.1 -17.46,25.82 -7.73,7.66 -16.4,13.41 -25.86,17.29 -9.62,3.93 -19.85,5.88 -30.56,5.88 -10.98,0 -21.37,-1.92 -31.06,-5.83 -9.57,-3.86 -18.31,-9.62 -26.1,-17.34 -7.79,-7.72 -13.6,-16.33 -17.45,-25.83 -3.86,-9.47 -5.76,-19.69 -5.76,-30.65l0 -676.11c0,-51.97 10.44,-101.67 29.31,-147.08 19.61,-47.19 48.31,-89.68 83.87,-125.23 35.55,-35.55 78.04,-64.26 125.23,-83.87 45.41,-18.87 95.11,-29.31 147.08,-29.31zm3354.87 1034.5c0,-18.59 -6.38,-34.42 -19.35,-47.27 -13.09,-12.97 -29.15,-19.35 -47.27,-19.35 -18.61,0 -34.91,6.38 -48,19.35 -12.77,12.65 -19.15,28.2 -19.34,46.41l-0 0 0 0.86c0,40.21 0,-13.18 0,27.1 0,18.59 6.39,34.43 19.35,47.27 13.08,12.96 29.39,19.35 48,19.35 18.12,0 34.19,-6.39 47.27,-19.35 12.96,-12.84 19.35,-28.66 19.35,-47.27 0,-40.29 0,13.16 0,-27.1zm-3287.5 -490.76c0,-18.6 -6.36,-34.4 -19.35,-47.27 -13.11,-12.99 -29.15,-19.35 -47.27,-19.35 -18.61,0 -34.9,6.36 -48,19.35 -12.79,12.67 -19.15,28.2 -19.34,46.41l-0 0 0 0.86c0,40.25 0,-13.18 0,27.1 0,18.59 6.37,34.41 19.35,47.27 13.1,12.98 29.39,19.35 48,19.35 18.12,0 34.17,-6.37 47.27,-19.35 12.98,-12.86 19.35,-28.66 19.35,-47.27 0,-40.29 -0.01,13.17 0,-27.1z"/>
   <path class="fil1" d="M2096.03 25.27c13.47,0 20.08,6.12 20.08,18.61l0 1011.77c0,12.98 -6.61,19.35 -20.08,19.35l-116.09 0c-12.98,0 -19.59,-6.37 -19.59,-19.35l0 -1011.77c0,-12.49 6.61,-18.61 19.59,-18.61l116.09 0zm-1019.19 907.62l0 155.76c0,51.97 -10.44,101.68 -29.31,147.09 -19.61,47.18 -48.32,89.67 -83.87,125.23 -69.82,69.82 -166.23,113.18 -272.32,113.18 -51.97,0 -101.67,-10.44 -147.08,-29.31 -47.18,-19.61 -89.68,-48.31 -125.23,-83.87 -35.55,-35.55 -64.26,-78.04 -83.87,-125.23 -18.87,-45.41 -29.31,-95.11 -29.31,-147.08l0 -348.11c0,-10.95 1.94,-21.23 5.86,-30.8l0.31 -0.69c3.89,-9.24 9.57,-17.58 17.04,-24.98 7.76,-7.69 16.52,-13.46 26.1,-17.33 9.68,-3.9 20.08,-5.84 31.05,-5.84 10.7,0 20.94,1.96 30.56,5.89 9.48,3.88 18.16,9.63 25.87,17.27 7.7,7.63 13.47,16.2 17.35,25.67l0.28 0.74c3.73,9.37 5.58,19.4 5.58,30.06 0,111.73 -0.98,143.18 -1.96,174.61 -0.92,29.74 -1.85,59.49 -1.85,173.51 0,30.91 6.2,60.43 17.41,87.36 11.66,28 28.78,53.3 50,74.52 21.23,21.23 46.52,38.35 74.53,50 26.93,11.21 56.45,17.41 87.36,17.41 30.91,0 60.43,-6.2 87.36,-17.41 28,-11.66 53.29,-28.77 74.52,-50 21.23,-21.23 38.35,-46.52 50.01,-74.52 11.21,-26.93 17.41,-56.45 17.41,-87.36l-0.01 -25.99c-0.53,-2.07 -0.8,-4.41 -0.8,-7.02l0 -454.33 -60.25 0c-6.12,0 -11.02,-1.71 -14.7,-4.9 -3.43,-3.43 -5.39,-8.08 -5.39,-14.45l0 -109.72c0,-12.49 6.86,-18.62 20.09,-18.62l60.25 0 0 -99.19c0,-70.29 13.23,-131.03 39.19,-182.46 26.21,-51.43 63.43,-90.87 112.42,-118.05 48.74,-27.18 106.54,-40.9 173.65,-40.9 20.58,0 41.15,2.45 61.72,7.11 20.57,4.9 39.43,11.51 56.58,20.08 3.43,1.47 5.88,3.67 7.84,6.61 1.96,2.7 2.94,5.88 2.94,9.31 0,2.69 -0.73,5.63 -2.2,8.57l-40.9 106.79c-2.94,7.84 -7.84,11.51 -14.94,11.51 -2.94,0 -5.88,-0.73 -8.57,-1.96 -19.35,-7.84 -39.43,-11.51 -60.49,-11.51 -53.39,0 -95.52,16.65 -125.89,49.72 -30.37,33.31 -45.56,78.86 -45.56,136.67l0 97.72 178.06 0c6.12,0 11.02,1.47 14.7,4.66 3.43,3.18 5.39,7.84 5.39,13.96l0 109.72c0,6.37 -1.96,11.02 -5.39,14.45 -3.67,3.18 -8.57,4.9 -14.7,4.9l-178.06 0 0 326.04c0.79,1.68 1.23,3.55 1.23,5.53zm794.12 -892.68c3.43,1.47 5.88,3.67 7.84,6.61 1.96,2.7 2.94,5.88 2.94,9.31 0,2.69 -0.73,5.63 -2.2,8.57l-40.9 106.79c-2.94,7.84 -7.84,11.51 -14.94,11.51 -2.94,0 -5.88,-0.73 -8.57,-1.96 -19.35,-7.84 -39.43,-11.51 -60.49,-11.51 -53.39,0 -95.52,16.65 -125.89,49.72 -30.37,33.31 -45.56,78.86 -45.56,136.67l0 97.72 178.06 0c6.12,0 11.02,1.47 14.7,4.66 3.43,3.18 5.39,7.84 5.39,13.96l0 109.72c0,6.37 -1.96,11.02 -5.39,14.45 -3.68,3.18 -8.57,4.9 -14.7,4.9l-178.06 0 0 454.33c0,12.98 -6.37,19.35 -19.35,19.35l-116.83 0c-12.98,0 -19.59,-6.37 -19.59,-19.35l0 -454.33 -60.25 0c-6.12,0 -11.02,-1.71 -14.7,-4.9 -3.43,-3.43 -5.39,-8.08 -5.39,-14.45l0 -109.72c0,-12.49 6.86,-18.62 20.09,-18.62l60.25 0 0 -99.19c0,-70.29 13.23,-131.03 39.19,-182.46 26.21,-51.43 63.43,-90.87 112.42,-118.05 48.74,-27.18 106.54,-40.9 173.65,-40.9 20.58,0 41.15,2.45 61.72,7.11 20.57,4.9 39.43,11.51 56.57,20.08zm680.93 394.08c59.76,0 113.89,14.7 162.14,44.33 48.25,29.63 85.72,69.8 112.42,120.26 26.45,50.45 39.19,105.56 38.21,165.32 -0.49,20.09 -7.11,35.76 -20.09,47.03 -12.74,11.26 -28.17,16.9 -45.8,16.9l-407.55 0c12.98,36.49 34.53,66.13 64.91,89.4 30.37,23.27 64.66,34.78 102.87,34.78 41.15,0 85.23,-16.41 132.01,-48.74 5.39,-2.94 9.8,-4.41 13.71,-4.41 5.39,0 10.04,2.94 14.45,8.57l24.98 35.27c11.51,15.18 20.82,28.17 27.92,38.7 2.94,4.9 4.41,9.55 4.41,14.45 0,5.63 -2.45,10.78 -7.1,14.94 -64.17,55.11 -134.95,82.54 -212.35,82.54 -60.99,0 -116.83,-14.7 -167.77,-44.57 -50.94,-29.64 -91.36,-69.56 -121.23,-120.01 -29.88,-50.45 -44.82,-105.56 -44.82,-165.57 0,-60.25 14.45,-115.36 43.35,-165.57 29.15,-50.21 68.58,-90.13 118.79,-119.52 50.21,-29.39 105.81,-44.09 166.54,-44.09zm-1.47 152.1c-40.65,0 -75.93,11.27 -106.05,34.04 -30.12,22.78 -49.96,52.66 -59.02,90.13l317.91 0c-8.57,-37.47 -26.21,-67.35 -53.15,-90.13 -26.7,-22.78 -60.01,-34.04 -99.68,-34.04zm703.23 -152.1c59.76,0 113.89,14.7 162.14,44.33 48.25,29.63 85.72,69.8 112.42,120.26 26.45,50.45 39.19,105.56 38.21,165.32 -0.49,20.09 -7.11,35.76 -20.09,47.03 -12.74,11.26 -28.17,16.9 -45.8,16.9l-407.55 0c12.98,36.49 34.53,66.13 64.91,89.4 30.37,23.27 64.66,34.78 102.87,34.78 41.15,0 85.23,-16.41 132.01,-48.74 5.39,-2.94 9.8,-4.41 13.71,-4.41 5.39,0 10.04,2.94 14.45,8.57l24.98 35.27c11.51,15.18 20.82,28.17 27.92,38.7 2.94,4.9 4.41,9.55 4.41,14.45 0,5.63 -2.45,10.78 -7.1,14.94 -64.17,55.11 -134.95,82.54 -212.35,82.54 -60.99,0 -116.83,-14.7 -167.77,-44.57 -50.94,-29.64 -91.36,-69.56 -121.23,-120.01 -29.88,-50.45 -44.82,-105.56 -44.82,-165.57 0,-60.25 14.45,-115.36 43.35,-165.57 29.15,-50.21 68.58,-90.13 118.79,-119.52 50.21,-29.39 105.81,-44.09 166.54,-44.09zm-1.47 152.1c-40.65,0 -75.93,11.27 -106.05,34.04 -30.13,22.78 -49.96,52.66 -59.02,90.13l317.91 0c-8.57,-37.47 -26.21,-67.35 -53.15,-90.13 -26.7,-22.78 -60.01,-34.04 -99.68,-34.04z"/>
  </g>
 </g>
</svg>
