

<svg xmlns="http://www.w3.org/2000/svg" xml:space="preserve" width="0.499992in" height="0.499992in" version="1.1" style="shape-rendering:geometricPrecision; text-rendering:geometricPrecision; image-rendering:optimizeQuality; fill-rule:evenodd; clip-rule:evenodd"
viewBox="0 0 4.02 4.02"
 xmlns:xlink="http://www.w3.org/1999/xlink"
 xmlns:xodm="http://www.corel.com/coreldraw/odm/2003">
 <defs>
  <style type="text/css">
   <![CDATA[
    .fil0 {fill:white}
    .fil1 {fill:black;fill-rule:nonzero}
    .fil2 {fill:#DE5C6E;fill-rule:nonzero}
   ]]>
  </style>
 </defs>
 <g id="Layer_x0020_1">
  <metadata id="CorelCorpID_0Corel-Layer"/>
  <g id="_1952980646912">
   <rect class="fil0" width="4.02" height="4.02"/>
   <g>
    <path class="fil1" d="M1.7 0.49c0.11,0 0.21,0.02 0.3,0.06 0.1,0.04 0.19,0.1 0.26,0.17 0.07,0.07 0.13,0.16 0.17,0.26 0.04,0.09 0.06,0.2 0.06,0.3l0 1.4c0,0.02 -0,0.04 -0.01,0.06 -0.01,0.02 -0.02,0.04 -0.04,0.05 -0.02,0.02 -0.03,0.03 -0.05,0.04 -0.02,0.01 -0.04,0.01 -0.06,0.01 -0.02,0 -0.04,-0 -0.06,-0.01 -0.02,-0.01 -0.04,-0.02 -0.05,-0.04 -0.02,-0.02 -0.03,-0.03 -0.04,-0.05 -0.01,-0.02 -0.01,-0.04 -0.01,-0.06 0,-0.22 0,-0.46 0,-0.7 0,-0.23 0,-0.45 0,-0.7 0,-0.06 -0.01,-0.12 -0.04,-0.18 -0.02,-0.06 -0.06,-0.11 -0.1,-0.15 -0.04,-0.04 -0.1,-0.08 -0.15,-0.1 -0.06,-0.02 -0.12,-0.04 -0.18,-0.04 -0.06,0 -0.12,0.01 -0.18,0.04 -0.06,0.02 -0.11,0.06 -0.15,0.1 -0.04,0.04 -0.08,0.1 -0.1,0.15 -0.02,0.06 -0.04,0.12 -0.04,0.18 0,0.25 0,0.47 0,0.7 0,0.24 0,0.48 0,0.7 0,0.02 -0,0.04 -0.01,0.06 -0.01,0.02 -0.02,0.04 -0.04,0.05 -0.02,0.02 -0.03,0.03 -0.05,0.04 -0.02,0.01 -0.04,0.01 -0.06,0.01 -0.02,0 -0.04,-0 -0.06,-0.01 -0.02,-0.01 -0.04,-0.02 -0.05,-0.04 -0.02,-0.02 -0.03,-0.03 -0.04,-0.05 -0.01,-0.02 -0.01,-0.04 -0.01,-0.06l0 -1.4c0,-0.11 0.02,-0.21 0.06,-0.3 0.04,-0.1 0.1,-0.19 0.17,-0.26 0.07,-0.07 0.16,-0.13 0.26,-0.17 0.09,-0.04 0.2,-0.06 0.3,-0.06zm0.14 1.12c0,-0.04 -0.01,-0.07 -0.04,-0.1 -0.03,-0.03 -0.06,-0.04 -0.1,-0.04 -0.04,0 -0.07,0.01 -0.1,0.04 -0.03,0.03 -0.04,0.06 -0.04,0.1l0 0 0 0c0,0.08 0,-0.03 0,0.06 0,0.04 0.01,0.07 0.04,0.1 0.03,0.03 0.06,0.04 0.1,0.04 0.04,0 0.07,-0.01 0.1,-0.04 0.03,-0.03 0.04,-0.06 0.04,-0.1 0,-0.08 -0,0.03 0,-0.06z"/>
    <path class="fil2" d="M3.12 2.42l0 0.32c0,0.11 -0.02,0.21 -0.06,0.3 -0.04,0.1 -0.1,0.19 -0.17,0.26 -0.14,0.14 -0.34,0.23 -0.56,0.23 -0.11,0 -0.21,-0.02 -0.3,-0.06 -0.1,-0.04 -0.19,-0.1 -0.26,-0.17 -0.07,-0.07 -0.13,-0.16 -0.17,-0.26 -0.04,-0.09 -0.06,-0.2 -0.06,-0.3l0 -0.72c0,-0.02 0,-0.04 0.01,-0.06l0 -0c0.01,-0.02 0.02,-0.04 0.04,-0.05 0.02,-0.02 0.03,-0.03 0.05,-0.04 0.02,-0.01 0.04,-0.01 0.06,-0.01 0.02,0 0.04,0 0.06,0.01 0.02,0.01 0.04,0.02 0.05,0.04 0.02,0.02 0.03,0.03 0.04,0.05l0 0c0.01,0.02 0.01,0.04 0.01,0.06 0,0.23 -0,0.3 -0,0.36 -0,0.06 -0,0.12 -0,0.36 0,0.06 0.01,0.12 0.04,0.18 0.02,0.06 0.06,0.11 0.1,0.15 0.04,0.04 0.1,0.08 0.15,0.1 0.06,0.02 0.12,0.04 0.18,0.04 0.06,0 0.12,-0.01 0.18,-0.04 0.06,-0.02 0.11,-0.06 0.15,-0.1 0.04,-0.04 0.08,-0.1 0.1,-0.15 0.02,-0.06 0.04,-0.12 0.04,-0.18l-0 -0.05c-0,-0 -0,-0.01 -0,-0.01l0 -0.12 -0.01 0 0 -0.53c0,-0.02 0,-0.04 0.01,-0.06l0 -0c0.01,-0.02 0.02,-0.04 0.04,-0.05 0.02,-0.02 0.03,-0.03 0.05,-0.04 0.02,-0.01 0.04,-0.01 0.06,-0.01 0.02,0 0.04,0 0.06,0.01 0.02,0.01 0.04,0.02 0.05,0.04 0.02,0.02 0.03,0.03 0.04,0.05l0 0c0.01,0.02 0.01,0.04 0.01,0.06 0,0.17 -0,0.25 -0,0.31l0 0.08c0,0 0,0.01 0,0.01z"/>
   </g>
  </g>
 </g>
</svg>
