

<svg xmlns="http://www.w3.org/2000/svg" xml:space="preserve" width="23.4666in" height="23.4666in" version="1.1" style="shape-rendering:geometricPrecision; text-rendering:geometricPrecision; image-rendering:optimizeQuality; fill-rule:evenodd; clip-rule:evenodd"
viewBox="0 0 3061.87 3061.87"
 xmlns:xlink="http://www.w3.org/1999/xlink"
 xmlns:xodm="http://www.corel.com/coreldraw/odm/2003">
 <defs>
  <style type="text/css">
   <![CDATA[
    .fil0 {fill:none}
    .fil1 {fill:black;fill-rule:nonzero}
    .fil2 {fill:#DE5C6E;fill-rule:nonzero}
   ]]>
  </style>
 </defs>
 <g id="Layer_x0020_1">
  <metadata id="CorelCorpID_0Corel-Layer"/>
  <g id="_1916358400288">
   <rect class="fil0" x="-0" y="-0" width="3061.87" height="3061.87"/>
   <g>
    <path class="fil1" d="M1290.45 371.92c81.73,0 159.89,16.41 231.29,46.09 74.19,30.84 141,75.97 196.91,131.88 55.9,55.9 101.05,122.72 131.88,196.91 29.67,71.41 46.09,149.56 46.09,231.29l0 1063.16c0,17.25 -2.99,33.32 -9.05,48.21 -6.08,14.92 -15.21,28.46 -27.45,40.59 -12.16,12.05 -25.78,21.09 -40.67,27.18 -15.13,6.18 -31.21,9.24 -48.05,9.24 -17.26,0 -33.61,-3.02 -48.84,-9.16 -15.06,-6.07 -28.79,-15.13 -41.04,-27.26 -12.25,-12.13 -21.38,-25.68 -27.45,-40.61 -6.06,-14.89 -9.05,-30.96 -9.05,-48.19 0,-168.36 1.54,-350.31 3.08,-532.23 1.45,-172.16 2.91,-344.24 2.91,-530.93 0,-48.61 -9.75,-95.03 -27.37,-137.37 -18.33,-44.03 -45.25,-83.8 -78.64,-117.19 -33.39,-33.39 -73.15,-60.3 -117.18,-78.63 -42.34,-17.63 -88.76,-27.37 -137.37,-27.37 -48.62,0 -95.04,9.75 -137.38,27.37 -44.03,18.33 -83.81,45.25 -117.19,78.63 -33.38,33.38 -60.3,73.16 -78.63,117.19 -17.63,42.34 -27.37,88.76 -27.37,137.37 0,186.68 1.46,358.77 2.91,530.93 1.54,181.92 3.08,363.87 3.08,532.23 0,17.25 -2.99,33.32 -9.05,48.21 -6.08,14.92 -15.21,28.46 -27.45,40.59 -12.16,12.05 -25.78,21.09 -40.67,27.18 -15.13,6.18 -31.21,9.24 -48.05,9.24 -17.26,0 -33.61,-3.02 -48.84,-9.16 -15.06,-6.07 -28.79,-15.13 -41.04,-27.26 -12.25,-12.13 -21.38,-25.68 -27.45,-40.61 -6.06,-14.89 -9.05,-30.96 -9.05,-48.19l0 -1063.16c0,-81.73 16.41,-159.88 46.09,-231.28 30.84,-74.2 75.97,-141.01 131.88,-196.92 55.9,-55.9 122.72,-101.04 196.92,-131.88 71.41,-29.68 149.55,-46.09 231.28,-46.09zm105.93 855.01c0.01,-29.25 -10,-54.1 -30.42,-74.33 -20.61,-20.43 -45.83,-30.42 -74.33,-30.42 -29.27,0 -54.87,10 -75.48,30.42 -20.11,19.92 -30.11,44.34 -30.42,72.98l-0.01 0 0 1.35c0,63.3 0,-20.72 0,42.61 0,29.23 10.02,54.11 30.42,74.33 20.6,20.41 46.22,30.42 75.48,30.42 28.5,0 53.73,-10.01 74.33,-30.42 20.4,-20.22 30.42,-45.06 30.42,-74.33 0,-63.36 -0.01,20.71 0,-42.61z"/>
    <path class="fil2" d="M2377.59 1838.85l0 244.93c0,81.73 -16.41,159.88 -46.09,231.29 -30.83,74.19 -75.98,141.01 -131.88,196.91 -109.8,109.8 -261.39,177.97 -428.21,177.97 -81.73,0 -159.87,-16.41 -231.28,-46.09 -74.2,-30.84 -141.02,-75.97 -196.92,-131.88 -55.91,-55.9 -101.04,-122.72 -131.88,-196.92 -29.68,-71.41 -46.09,-149.55 -46.09,-231.28l0 -547.4c0,-17.21 3.06,-33.38 9.22,-48.43l0.49 -1.09c6.11,-14.53 15.05,-27.65 26.79,-39.28 12.21,-12.09 25.97,-21.16 41.05,-27.25 15.22,-6.13 31.58,-9.18 48.83,-9.18 16.83,0 32.92,3.07 48.05,9.26 14.91,6.1 28.55,15.15 40.68,27.16 12.1,11.99 21.19,25.48 27.28,40.37l0.44 1.17c5.87,14.74 8.78,30.51 8.78,47.26 0,175.68 -1.54,225.14 -3.08,274.56 -1.45,46.77 -2.91,93.54 -2.91,272.83 0,48.61 9.75,95.03 27.37,137.37 18.33,44.03 45.25,83.8 78.63,117.19 33.38,33.38 73.16,60.3 117.19,78.63 42.34,17.62 88.76,27.37 137.38,27.37 48.61,0 95.03,-9.75 137.37,-27.37 44.03,-18.33 83.79,-45.24 117.18,-78.63 33.39,-33.39 60.3,-73.16 78.64,-117.19 17.63,-42.34 27.37,-88.76 27.37,-137.37l-0.02 -40.86c-0.84,-3.26 -1.25,-6.94 -1.25,-11.03l0 -89.72 -4.72 0 0 -405.78c0,-17.21 3.06,-33.38 9.22,-48.43l0.49 -1.09c6.12,-14.53 15.05,-27.65 26.79,-39.28 12.21,-12.09 25.97,-21.16 41.05,-27.25 15.22,-6.13 31.58,-9.18 48.83,-9.18 16.83,0 32.92,3.07 48.05,9.26 14.91,6.1 28.55,15.15 40.68,27.16 12.1,11.99 21.19,25.48 27.28,40.37l0.44 1.17c5.87,14.74 8.78,30.51 8.78,47.26 0,131.26 -0.86,192.05 -1.94,235.02l0 58.75c1.24,2.64 1.94,5.59 1.94,8.7z"/>
   </g>
  </g>
 </g>
</svg>
