<svg width="24" height="24" viewBox="0 0 1024 1024" fill="none" xmlns="http://www.w3.org/2000/svg">
<path d="M600.704 64C607.479 64.0002 614.079 66.1506 619.554 70.1416C625.028 74.1326 629.095 79.7581 631.168 86.208L666.368 195.584C681.152 202.816 695.296 210.944 708.8 220.096L821.184 195.904C827.81 194.489 834.715 195.214 840.902 197.975C847.09 200.735 852.242 205.388 855.616 211.264L944.32 364.8C947.707 370.672 949.142 377.469 948.417 384.209C947.693 390.95 944.846 397.286 940.288 402.304L863.168 487.424C864.291 503.746 864.291 520.126 863.168 536.448L940.288 621.696C944.846 626.714 947.693 633.05 948.417 639.791C949.142 646.531 947.707 653.328 944.32 659.2L855.616 812.8C852.233 818.664 847.077 823.304 840.89 826.053C834.703 828.801 827.804 829.517 821.184 828.096L708.8 803.904C695.36 812.992 681.152 821.184 666.432 828.416L631.168 937.792C629.095 944.242 625.028 949.867 619.554 953.858C614.079 957.849 607.479 960 600.704 960H423.296C416.521 960 409.921 957.849 404.447 953.858C398.972 949.867 394.905 944.242 392.832 937.792L357.696 828.48C342.952 821.27 328.73 813.037 315.136 803.84L202.816 828.096C196.19 829.511 189.286 828.786 183.098 826.025C176.91 823.265 171.758 818.612 168.384 812.736L79.6801 659.2C76.2929 653.328 74.8581 646.531 75.5828 639.791C76.3074 633.05 79.154 626.714 83.7121 621.696L160.832 536.448C159.715 520.168 159.715 503.832 160.832 487.552L83.7121 402.304C79.154 397.286 76.3074 390.95 75.5828 384.209C74.8581 377.469 76.2929 370.672 79.6801 364.8L168.384 211.2C171.767 205.336 176.923 200.696 183.11 197.947C189.297 195.199 196.197 194.483 202.816 195.904L315.136 220.16C328.704 211.008 342.912 202.752 357.696 195.52L392.896 86.208C394.962 79.7789 399.01 74.1682 404.459 70.1792C409.908 66.1902 416.479 64.0272 423.232 64H600.64H600.704ZM577.28 128H446.72L410.368 241.088L385.856 253.056C373.806 258.953 362.174 265.667 351.04 273.152L328.384 288.512L212.16 263.424L146.88 376.576L226.56 464.768L224.64 491.904C223.721 505.286 223.721 518.714 224.64 532.096L226.56 559.232L146.752 647.424L212.096 760.576L328.32 735.552L350.976 750.848C362.11 758.333 373.742 765.047 385.792 770.944L410.304 782.912L446.72 896H577.408L613.888 782.848L638.336 770.944C650.373 765.061 661.985 758.346 673.088 750.848L695.68 735.552L811.968 760.576L877.248 647.424L797.504 559.232L799.424 532.096C800.347 518.693 800.347 505.243 799.424 491.84L797.504 464.704L877.312 376.576L811.968 263.424L695.68 288.384L673.088 273.152C661.986 265.652 650.374 258.937 638.336 253.056L613.888 241.152L577.344 128H577.28ZM512 320C562.922 320 611.758 340.229 647.765 376.236C683.772 412.242 704 461.078 704 512C704 562.922 683.772 611.758 647.765 647.765C611.758 683.772 562.922 704 512 704C461.079 704 412.243 683.772 376.236 647.765C340.229 611.758 320 562.922 320 512C320 461.078 340.229 412.242 376.236 376.236C412.243 340.229 461.079 320 512 320ZM512 384C478.052 384 445.495 397.486 421.49 421.49C397.486 445.495 384 478.052 384 512C384 545.948 397.486 578.505 421.49 602.51C445.495 626.514 478.052 640 512 640C545.948 640 578.505 626.514 602.51 602.51C626.514 578.505 640 545.948 640 512C640 478.052 626.514 445.495 602.51 421.49C578.505 397.486 545.948 384 512 384Z" fill="black"/>
</svg>
