
<svg width="24" height="24" viewBox="0 0 256 256" fill="none" xmlns="http://www.w3.org/2000/svg">
<path d="M166 224C166 225.591 165.368 227.117 164.243 228.243C163.117 229.368 161.591 230 160 230H96C94.4087 230 92.8826 229.368 91.7574 228.243C90.6322 227.117 90 225.591 90 224C90 222.409 90.6322 220.883 91.7574 219.757C92.8826 218.632 94.4087 218 96 218H160C161.591 218 163.117 218.632 164.243 219.757C165.368 220.883 166 222.409 166 224ZM220.11 191C218.897 193.136 217.136 194.911 215.01 196.141C212.883 197.372 210.467 198.013 208.01 198H48C45.5391 197.995 43.1231 197.341 40.9954 196.105C38.8677 194.868 37.1034 193.093 35.8805 190.957C34.6576 188.822 34.0192 186.401 34.0297 183.941C34.0401 181.48 34.699 179.065 35.94 176.94C41.59 167.2 50 139.74 50 104C50 83.3131 58.2179 63.4735 72.8457 48.8457C87.4736 34.2178 107.313 26 128 26C148.687 26 168.527 34.2178 183.154 48.8457C197.782 63.4735 206 83.3131 206 104C206 139.73 214.42 167.2 220.08 176.94C221.334 179.069 221.999 181.495 222.004 183.966C222.009 186.437 221.355 188.865 220.11 191ZM209.7 183C202.13 170 194 139.68 194 104C194 86.4957 187.046 69.7084 174.669 57.331C162.292 44.9536 145.504 38 128 38C110.496 38 93.7084 44.9536 81.331 57.331C68.9536 69.7084 62 86.4957 62 104C62 139.69 53.86 170 46.29 183C46.1145 183.304 46.0221 183.649 46.0221 184C46.0221 184.351 46.1145 184.696 46.29 185C46.4547 185.306 46.7004 185.562 47.0001 185.738C47.2999 185.914 47.6423 186.005 47.99 186H208C208.348 186.005 208.69 185.914 208.99 185.738C209.29 185.562 209.535 185.306 209.7 185C209.876 184.696 209.968 184.351 209.968 184C209.968 183.649 209.876 183.304 209.7 183Z" fill="black"/>
</svg>
